<?xml version="1.0" standalone="no"?>
<!DOCTYPE svg PUBLIC "-//W3C//DTD SVG 20010904//EN"
 "http://www.w3.org/TR/2001/REC-SVG-20010904/DTD/svg10.dtd">
<svg version="1.0" xmlns="http://www.w3.org/2000/svg"
 width="400.000000pt" height="400.000000pt" viewBox="0 0 400.000000 400.000000"
 preserveAspectRatio="xMidYMid meet">
<metadata>
Created by potrace 1.14, written by Peter Selinger 2001-2017
</metadata>
<g transform="translate(0.000000,400.000000) scale(0.100000,-0.100000)"
fill="#000000" stroke="none">
<path d="M1920 3762 c0 -4 -17 -7 -38 -8 -53 -1 -144 -15 -162 -24 -8 -4 -18
-8 -23 -8 -20 -1 -73 -15 -82 -22 -5 -5 -12 -8 -15 -9 -26 -1 -162 -68 -238
-118 -73 -48 -69 -45 -156 -128 -61 -59 -97 -101 -184 -220 -33 -46 -125 -263
-116 -276 3 -5 0 -9 -7 -9 -7 0 -10 -2 -7 -6 3 -3 0 -25 -8 -50 -15 -51 -28
-165 -26 -244 0 -30 1 -55 2 -55 1 0 3 -17 6 -38 5 -48 44 -175 86 -276 35
-85 233 -476 248 -491 3 -3 30 -48 60 -100 29 -52 57 -96 62 -98 4 -2 8 -12 8
-22 0 -10 4 -20 8 -22 10 -4 72 -105 72 -118 0 -6 4 -10 9 -10 5 0 13 -9 16
-20 3 -11 12 -26 18 -33 17 -18 47 -69 54 -89 3 -10 9 -18 14 -18 5 0 9 -6 9
-14 0 -8 3 -16 8 -18 4 -1 15 -18 25 -35 l18 -33 -28 -1 c-31 -2 -55 -5 -63
-8 -3 -1 -27 -4 -55 -6 -111 -9 -454 -85 -481 -107 -7 -5 -16 -8 -20 -7 -19 5
-184 -75 -214 -103 -11 -10 -23 -18 -27 -18 -10 0 -51 -43 -83 -87 -30 -41
-35 -126 -12 -189 15 -42 74 -107 127 -142 45 -29 185 -92 250 -112 39 -12 77
-24 85 -27 8 -3 22 -7 30 -8 8 -1 44 -9 80 -18 36 -8 87 -18 114 -22 27 -3 52
-8 56 -10 3 -2 30 -6 60 -10 30 -3 63 -8 72 -11 9 -3 45 -7 80 -9 35 -2 115
-7 178 -11 200 -13 551 -7 705 11 17 2 53 6 80 10 90 10 124 15 167 24 23 6
45 8 49 5 4 -2 10 0 14 6 4 6 10 8 14 6 4 -3 46 4 92 15 285 67 492 176 544
286 26 55 28 138 4 185 -24 47 -139 163 -139 140 0 -4 -4 -2 -8 4 -16 24 -239
114 -317 128 -15 3 -41 10 -58 15 -35 11 -73 19 -127 27 -19 2 -42 7 -52 10
-31 9 -133 24 -208 30 -82 6 -98 14 -78 35 7 8 22 31 33 52 11 20 23 37 27 37
5 0 8 6 8 14 0 7 7 19 15 26 8 7 13 16 10 20 -3 4 2 10 10 14 8 3 15 10 15 15
0 9 68 122 88 146 5 6 11 15 13 20 2 6 33 59 69 118 77 129 132 226 163 287
12 25 25 47 28 50 11 10 129 262 129 276 0 8 5 14 12 14 6 0 9 3 5 6 -3 4 0
19 8 35 8 15 16 36 18 46 1 10 6 23 9 29 4 6 9 22 12 37 2 15 7 31 11 37 18
30 26 262 11 335 -3 17 -9 47 -11 69 -3 21 -9 46 -14 55 -4 9 -11 30 -14 46
-3 17 -14 48 -23 70 -10 22 -18 42 -19 45 -4 20 -81 160 -107 195 -35 46 -116
144 -133 160 -211 202 -453 308 -725 321 -58 3 -113 6 -122 8 -10 2 -18 1 -18
-2z"/>
</g>
</svg>
